<svg width="196" height="180" viewBox="0 0 196 180" fill="none" xmlns="http://www.w3.org/2000/svg">
<g clip-path="url(#clip0_48_34427)">
<path d="M115.069 179.507L0.977182 113.633C0.179644 113.173 0.179644 112.431 0.977182 111.971L67.8153 73.3624C68.2619 73.137 68.7551 73.0195 69.2553 73.0195C69.7556 73.0195 70.2488 73.137 70.6953 73.3624L184.788 139.27C185.585 139.724 185.585 140.472 184.788 140.932L117.927 179.535C117.482 179.753 116.991 179.865 116.495 179.86C115.999 179.855 115.511 179.734 115.069 179.507Z" fill="#F3F4F6"/>
<path d="M85.5385 78.7571H85.4775C85.4066 78.7412 85.3447 78.698 85.3053 78.6368C85.266 78.5757 85.2522 78.5015 85.2671 78.4303C88.1969 65.7472 101.423 51.7072 108.567 48.794C108.601 48.7759 108.639 48.7652 108.678 48.7624C108.716 48.7597 108.755 48.765 108.791 48.7781C108.827 48.7912 108.86 48.8117 108.888 48.8384C108.916 48.865 108.938 48.8972 108.953 48.9329C108.968 48.9686 108.975 49.007 108.974 49.0456C108.973 49.0842 108.964 49.1221 108.947 49.157C108.931 49.1919 108.907 49.223 108.878 49.2482C108.849 49.2735 108.815 49.2923 108.778 49.3036C101.738 52.178 88.7009 66.0297 85.8098 78.5522C85.793 78.6112 85.7574 78.6631 85.7084 78.7C85.6595 78.737 85.5998 78.757 85.5385 78.7571Z" fill="white"/>
<path d="M92.9046 63.5989C92.8391 63.5984 92.776 63.5748 92.7263 63.5322C92.6767 63.4896 92.6437 63.4308 92.6332 63.3663C92.2468 61.2185 91.4837 59.156 90.379 57.274C90.3414 57.2112 90.3296 57.1363 90.3462 57.065C90.3627 56.9937 90.4062 56.9316 90.4676 56.8918C90.4985 56.8725 90.5329 56.8594 90.5689 56.8534C90.6048 56.8474 90.6416 56.8485 90.6771 56.8568C90.7126 56.865 90.7462 56.8802 90.7758 56.9014C90.8054 56.9226 90.8306 56.9495 90.8498 56.9804C92.0011 58.9288 92.7893 61.0699 93.176 63.2998C93.1831 63.3356 93.1828 63.3724 93.1751 63.4081C93.1673 63.4437 93.1523 63.4774 93.1311 63.507C93.1098 63.5366 93.0826 63.5615 93.0513 63.5802C93.0199 63.5989 92.9851 63.6109 92.9489 63.6155L92.9046 63.5989Z" fill="white"/>
<path d="M90.6172 67.4527C90.5558 67.4527 90.4962 67.4327 90.4472 67.3957C90.3982 67.3587 90.3626 67.3068 90.3458 67.2478C90.3366 67.2125 90.3345 67.1758 90.3396 67.1397C90.3447 67.1036 90.3568 67.0689 90.3754 67.0375C90.3939 67.0061 90.4184 66.9787 90.4476 66.9568C90.4767 66.9349 90.5099 66.919 90.5452 66.91C94.8984 65.758 100.398 66.8601 100.631 66.91C100.667 66.9172 100.702 66.9316 100.732 66.9522C100.763 66.9729 100.79 66.9994 100.81 67.0303C100.831 67.0611 100.845 67.0957 100.852 67.1321C100.86 67.1685 100.86 67.2059 100.852 67.2423C100.845 67.2787 100.831 67.3132 100.81 67.344C100.789 67.3749 100.763 67.4013 100.732 67.4219C100.701 67.4425 100.667 67.4567 100.63 67.4639C100.594 67.4711 100.556 67.4711 100.52 67.4638C100.465 67.4638 94.9095 66.3561 90.6836 67.4638C90.6609 67.4657 90.6381 67.4619 90.6172 67.4527Z" fill="white"/>
<path d="M139.566 10.0295L141.687 10.8437V6.16919C141.687 2.45842 144.645 1.56673 147.857 3.39996C151.069 5.25535 153.673 9.76366 153.673 13.4744V14.1778C154.125 14.0371 154.604 14.0014 155.072 14.0734C155.54 14.1454 155.986 14.3232 156.375 14.5932C157.593 15.3882 158.606 16.4588 159.332 17.7184C160.059 18.978 160.478 20.3911 160.557 21.843V22.1532L163.52 23.8646C164.325 24.3862 164.995 25.0905 165.476 25.9201C165.957 26.7497 166.236 27.6812 166.289 28.6387C166.289 30.3944 165.06 31.1089 163.52 30.2283L139.566 16.3821C138.761 15.8605 138.091 15.1562 137.61 14.3266C137.129 13.497 136.85 12.5655 136.797 11.608C136.808 9.86335 138.043 9.14889 139.566 10.0295Z" fill="#F3F4F6"/>
<path d="M163.631 11.5804L167.508 13.7958C167.508 13.6241 167.474 13.4579 167.474 13.2862V12.1841C167.474 10.2013 168.87 9.41486 170.587 10.3896C171.311 10.8508 171.927 11.4629 172.393 12.1841C172.675 9.68625 174.608 8.75579 177.012 10.1293C179.581 11.6136 181.669 15.2247 181.669 18.1933V19.8549C181.685 20.5205 181.551 21.1812 181.276 21.7878L184.472 23.6321C184.975 23.9596 185.393 24.4011 185.694 24.9208C185.994 25.4404 186.167 26.0236 186.2 26.6229C186.2 27.7306 185.425 28.1681 184.472 27.6198L163.631 15.5681C163.128 15.2406 162.709 14.7991 162.409 14.2794C162.109 13.7598 161.935 13.1766 161.903 12.5773C161.881 11.4752 162.656 11.0321 163.631 11.5804Z" fill="#F3F4F6"/>
<path d="M85.0565 13.2636L105.261 1.59961L109.758 4.19715L105.261 11.9898L85.0565 23.6538V13.2636Z" fill="#9CA3AF"/>
<path d="M105.261 1.60037L103.007 0.298828L82.7635 11.9905L85.0565 13.2644L105.261 1.60037Z" fill="#6B7280"/>
<path d="M82.7193 24.9394L62.515 13.2754L58.0122 15.8729L62.515 23.6655L82.7193 35.3295V24.9394Z" fill="#9CA3AF"/>
<path d="M62.515 13.2745L64.7636 11.9785L85.0122 23.6647L82.7193 24.9385L62.515 13.2745Z" fill="#6B7280"/>
<path d="M85.051 2.48582C85.027 2.28883 84.9528 2.10131 84.8354 1.94128C84.7181 1.78125 84.5615 1.65408 84.3809 1.57197C83.8786 1.31792 83.3237 1.18555 82.7609 1.18555C82.198 1.18555 81.6431 1.31792 81.1409 1.57197C80.9602 1.65408 80.8037 1.78125 80.6863 1.94128C80.5689 2.10131 80.4947 2.28883 80.4707 2.48582V124.421H85.0621V2.48582H85.051Z" fill="#9CA3AF"/>
<path d="M125.51 94.6077L98.5095 86.8151L70.5348 63.2102C70.1527 62.9173 69.6954 62.7389 69.2159 62.6958C68.7365 62.6526 68.2546 62.7465 67.8265 62.9665L0.955069 101.575C0.781126 101.658 0.63173 101.784 0.521612 101.942C0.411494 102.1 0.344462 102.284 0.327129 102.476C0.309795 102.668 0.34276 102.861 0.422769 103.036C0.502778 103.211 0.627068 103.362 0.783378 103.475L28.7637 127.08L55.7637 134.872L84.9846 159.552L114.892 169.427C115.903 169.695 116.976 169.585 117.911 169.117L120.974 167.344L184.782 130.508C185.574 130.054 185.513 129.445 184.644 129.157L154.736 119.287L125.51 94.6077Z" fill="#9CA3AF"/>
<path d="M98.5095 86.8145L28.7637 127.079L55.7637 134.872L125.51 94.6071L98.5095 86.8145Z" fill="#9CA3AF"/>
<path d="M84.9846 159.552L114.892 169.427C115.903 169.696 116.978 169.584 117.911 169.111L184.782 130.508C185.574 130.054 185.513 129.445 184.644 129.157L154.736 119.287L84.9846 159.552Z" fill="#9CA3AF"/>
<path d="M94.0068 89.4131L68.4191 67.8242L7.67322 102.894L33.2664 124.483L94.0068 89.4131Z" fill="#E0E0E0"/>
<path d="M121.007 97.2047L60.2665 132.274L33.2665 124.482L94.0068 89.4121L121.007 97.2047Z" fill="#E0E0E0"/>
<g style="mix-blend-mode:multiply" opacity="0.5">
<g style="mix-blend-mode:multiply" opacity="0.5">
<path d="M121.007 97.2047L60.2665 132.274L33.2665 124.482L94.0068 89.4121L121.007 97.2047Z" fill="#E0E0E0"/>
</g>
</g>
<path d="M150.25 121.884L89.5096 156.954L60.2665 132.275L121.007 97.2051L150.25 121.884Z" fill="#E0E0E0"/>
<path d="M176.026 130.386L115.28 165.456L89.5095 156.954L150.25 121.885L176.026 130.386Z" fill="#E0E0E0"/>
<g style="mix-blend-mode:multiply" opacity="0.5">
<g style="mix-blend-mode:multiply" opacity="0.5">
<path d="M176.026 130.386L115.28 165.456L89.5095 156.954L150.25 121.885L176.026 130.386Z" fill="#E0E0E0"/>
</g>
</g>
<path d="M22.4886 115.393L31.0178 110.198L17.5206 97.2051L7.67322 102.893L22.4886 115.393Z" fill="#F0F0F0"/>
<path d="M33.2664 108.898L19.7692 95.9098L40.0178 84.1738L53.515 97.2058L33.2664 108.898Z" fill="#F0F0F0"/>
<path d="M42.2665 82.9211L55.7637 95.9088L62.5151 92.0097L60.2665 72.5254L42.2665 82.9211Z" fill="#F0F0F0"/>
<path d="M64.7636 90.7147L62.515 71.2304L68.419 67.8242L90.3513 86.3282L64.7636 90.7147Z" fill="#F0F0F0"/>
<path d="M41.1421 119.94L34.3908 113.443L25.9557 118.312L33.2665 124.482L41.1421 119.94Z" fill="#F0F0F0"/>
<path d="M36.6394 112.143L43.3908 118.64L63.6172 106.965L56.8825 100.457L36.6394 112.143Z" fill="#F0F0F0"/>
<path d="M65.888 105.652L59.1366 99.1556L65.3175 95.5888L78.2609 93.3125V98.5076L65.888 105.652Z" fill="#F0F0F0"/>
<path d="M80.5095 97.205V92.9127L91.2043 91.0352L80.5095 97.205Z" fill="#F0F0F0"/>
<path d="M91.7637 101.104C89.277 100.384 85.749 100.677 83.8881 101.752C82.0271 102.826 82.5256 104.283 84.9957 104.997C87.4659 105.712 91.005 105.429 92.8714 104.349C94.7379 103.269 94.245 101.818 91.7637 101.104Z" fill="#E6E6E6"/>
<path d="M84.4308 99.6927C83.9459 99.8498 83.4783 100.056 83.0351 100.307C81.0745 101.415 81.0246 102.911 81.0966 103.492C81.1389 103.834 81.246 104.165 81.4123 104.467L75.9902 107.591L65.8658 105.647L78.2388 98.502L84.4308 99.6927Z" fill="#E6E6E6"/>
<path d="M80.5095 97.2047L87.4492 98.4066L91.0049 98.8995L103.007 92.0096L94.0068 89.4121L80.5095 97.2047Z" fill="#E6E6E6"/>
<path d="M120.985 97.2057L104.092 106.959L94.0289 105.58C95.6628 104.472 95.6905 103.154 95.6351 102.606C95.5916 102.266 95.4865 101.938 95.3249 101.636L108.988 93.7441L120.985 97.2057Z" fill="#E6E6E6"/>
<path d="M102.082 108.132L94.0123 112.79L80.4763 110.214L86.0923 106.958L86.1366 106.93C86.7681 107.015 87.4046 107.058 88.0419 107.057C89.3436 107.068 90.64 106.891 91.8911 106.531L102.082 108.132Z" fill="#E6E6E6"/>
<path d="M63.6172 106.965L43.3907 118.64L53.5151 120.589L73.7471 108.903L63.6172 106.965Z" fill="#E6E6E6"/>
<path d="M94.0123 112.797L80.4874 110.199L60.2554 121.885L73.7637 124.483L94.0123 112.797Z" fill="#E6E6E6"/>
<path d="M41.1422 119.941L33.2665 124.483L42.2665 127.08L51.2665 121.885L41.1422 119.941Z" fill="#E6E6E6"/>
<path d="M71.5151 125.783L58.0068 123.186L48.2646 128.813L60.2665 132.274L71.5151 125.783Z" fill="#E6E6E6"/>
<path d="M107.51 112.796L115.025 126.637L134.504 115.394L116.51 107.596L107.51 112.796Z" fill="#F0F0F0"/>
<path d="M71.5151 125.783L73.7637 129.677L73.0603 143.074L60.2665 132.274L71.5151 125.783Z" fill="#F0F0F0"/>
<path d="M73.7637 124.482L76.0123 128.381L104.225 112.093L102.082 108.133L73.7637 124.482Z" fill="#F0F0F0"/>
<path d="M104.115 106.964L106.385 110.846L124.662 100.29L121.007 97.2051L104.115 106.964Z" fill="#F0F0F0"/>
<path d="M105.261 114.092L77.1367 130.331L76.4111 145.905L78.5434 147.699L112.793 127.927L105.261 114.092Z" fill="#F0F0F0"/>
<path d="M118.758 106.3L126.49 101.836L139.284 112.63L136.758 114.093L118.758 106.3Z" fill="#F0F0F0"/>
<path d="M82.1987 150.784L91.7581 145.268L96.2609 153.06L89.5095 156.954L82.1987 150.784Z" fill="#F0F0F0"/>
<path d="M103.006 138.774L94.0076 143.969L98.5076 151.763L107.506 146.568L103.006 138.774Z" fill="#F0F0F0"/>
<path d="M105.261 137.476L114.948 131.877L119.257 139.78L109.758 145.269L105.261 137.476Z" fill="#F0F0F0"/>
<path d="M121.472 138.505L117.174 130.596L136.758 119.286L146.6 118.799L150.25 121.884L121.472 138.505Z" fill="#F0F0F0"/>
<path d="M141.111 114.176L136.758 116.69L143.775 116.419L141.111 114.176Z" fill="#F0F0F0"/>
<path d="M132.394 142.748C129.913 142.033 126.385 142.321 124.524 143.396C122.663 144.47 123.161 145.927 125.631 146.647C128.102 147.367 131.641 147.073 133.507 145.999C135.374 144.924 134.881 143.446 132.394 142.748Z" fill="#E6E6E6"/>
<path d="M96.2609 153.061L105.261 155.658L98.0997 159.79L89.5095 156.954L96.2609 153.061Z" fill="#E6E6E6"/>
<path d="M98.5095 151.76L107.51 154.357L116.51 149.162L107.51 146.564L98.5095 151.76Z" fill="#E6E6E6"/>
<path d="M109.758 145.269L118.769 147.877L121.766 146.144C121.766 146.144 120.342 142.965 124.535 141.636L119.246 139.797L109.758 145.269Z" fill="#E6E6E6"/>
<path d="M121.472 138.505L127.011 140.499C128.504 140.318 130.014 140.318 131.508 140.499L148.007 130.978L139.007 128.381L121.472 138.505Z" fill="#E6E6E6"/>
<path d="M141.255 127.08L150.255 129.677L158.846 124.72L150.25 121.885L141.255 127.08Z" fill="#E6E6E6"/>
<path d="M164.572 126.609L150.255 134.873L161.504 138.772L176.026 130.387L164.572 126.609Z" fill="#E6E6E6"/>
<path d="M148.007 136.174L136.177 143.003C136.177 143.003 137.628 145.257 135.772 147.04L143.526 149.162L159.278 140.073L148.3 136.329" fill="#E6E6E6"/>
<path d="M141.255 150.462L133.263 148.43C133.263 148.43 129.414 149.936 126.174 148.762L114.255 155.641L112.007 164.364L115.28 165.438L141.255 150.462Z" fill="#E6E6E6"/>
<path d="M112.007 156.955L110.124 163.756L103.826 161.679L112.007 156.955Z" fill="#E6E6E6"/>
<path d="M102.082 136.19C101.986 136.19 101.891 136.165 101.808 136.117C101.724 136.069 101.654 136.001 101.605 135.918C101.531 135.792 101.509 135.641 101.545 135.499C101.582 135.357 101.673 135.234 101.799 135.16L113.646 128.176L102.652 108.099L92.3064 106.47C92.1944 106.453 92.0905 106.402 92.0086 106.323C91.9268 106.245 91.8709 106.143 91.8485 106.032C91.8262 105.921 91.8385 105.806 91.8837 105.702C91.9289 105.598 92.0049 105.511 92.1015 105.451C93.6356 104.515 94.4055 103.629 94.3169 102.881C94.2282 102.134 93.3642 101.419 91.9353 100.865C89.8085 100.046 85.411 100.312 83.5113 101.79C83.0476 102.096 82.723 102.572 82.6079 103.115C82.4928 103.658 82.5965 104.225 82.8965 104.692C82.9379 104.755 82.9661 104.825 82.9796 104.899C82.993 104.972 82.9914 105.048 82.9749 105.121C82.9583 105.194 82.9271 105.263 82.8832 105.323C82.8393 105.384 82.7835 105.435 82.7193 105.473L77.0147 108.924C76.8994 108.991 76.7644 109.016 76.6325 108.996L64.6418 106.847C64.5314 106.824 64.4297 106.77 64.3482 106.692L52.2522 94.5072C52.1491 94.4035 52.0912 94.2631 52.0912 94.1168C52.0912 93.9705 52.1491 93.8301 52.2522 93.7263C52.3037 93.6744 52.365 93.6332 52.4325 93.6051C52.5 93.577 52.5724 93.5625 52.6455 93.5625C52.7186 93.5625 52.791 93.577 52.8585 93.6051C52.926 93.6332 52.9872 93.6744 53.0387 93.7263L65.0461 105.784L76.6769 107.866L81.7612 104.792C81.468 104.118 81.4181 103.362 81.6202 102.655C81.8222 101.948 82.2636 101.333 82.8689 100.915C85.0842 99.2094 89.9359 98.8937 92.3729 99.8076C93.4805 100.228 95.3193 101.17 95.4578 102.754C95.5464 103.696 95.0092 104.637 93.8572 105.562L103.106 107.019C103.191 107.031 103.272 107.063 103.342 107.112C103.412 107.161 103.47 107.226 103.511 107.301L114.892 128.115C114.961 128.241 114.978 128.389 114.94 128.527C114.902 128.666 114.811 128.784 114.687 128.857L102.381 136.112C102.291 136.166 102.187 136.193 102.082 136.19Z" fill="#36C17F"/>
<path d="M56.3065 77.2281L54.4123 76.1204C53.504 75.5167 52.2523 75.5665 50.8622 76.3419C48.0929 77.9315 45.8776 81.9745 45.8776 85.3641V86.1395C45.8776 89.529 50.4357 93.2176 50.4357 93.2176L52.3022 94.2755C52.3022 94.2755 51.1945 92.9961 51.3108 92.7358C52.5293 90.2268 55.8579 83.1432 55.8579 80.3739V79.6041C55.8639 79.0429 55.7912 78.4836 55.6419 77.9425L55.8579 78.0644L56.3065 77.2281ZM50.8622 85.0096C49.4831 85.8016 48.3643 85.1592 48.3643 83.5696C49.1065 83.4533 50.9729 80.2465 50.8622 79.2441C52.2413 78.4521 53.3545 79.0945 53.3545 80.6841C53.3067 81.5498 53.0562 82.3923 52.6233 83.1436C52.1904 83.8949 51.5872 84.534 50.8622 85.0096Z" fill="#36C17F"/>
<path d="M56.3065 77.2281L54.4123 76.1204C53.504 75.5167 52.2523 75.5665 50.8622 76.3419C48.0929 77.9315 45.8776 81.9745 45.8776 85.3641V86.1395C45.8776 89.529 50.4357 93.2176 50.4357 93.2176L52.3022 94.2755C52.3022 94.2755 51.1945 92.9961 51.3108 92.7358C52.5293 90.2268 55.8579 83.1432 55.8579 80.3739V79.6041C55.8639 79.0429 55.7912 78.4836 55.6419 77.9425L55.8579 78.0644L56.3065 77.2281ZM50.8622 85.0096C49.4831 85.8016 48.3643 85.1592 48.3643 83.5696C49.1065 83.4533 50.9729 80.2465 50.8622 79.2441C52.2413 78.4521 53.3545 79.0945 53.3545 80.6841C53.3067 81.5498 53.0562 82.3923 52.6233 83.1436C52.1904 83.8949 51.5872 84.534 50.8622 85.0096Z" fill="#36C17F"/>
<g opacity="0.2">
<path opacity="0.2" d="M56.3065 77.2281L54.4123 76.1204C53.504 75.5167 52.2523 75.5665 50.8622 76.3419C48.0929 77.9315 45.8776 81.9745 45.8776 85.3641V86.1395C45.8776 89.529 50.4357 93.2176 50.4357 93.2176L52.3022 94.2755C52.3022 94.2755 51.1945 92.9961 51.3108 92.7358C52.5293 90.2268 55.8579 83.1432 55.8579 80.3739V79.6041C55.8639 79.0429 55.7912 78.4836 55.6419 77.9425L55.8579 78.0644L56.3065 77.2281ZM50.8622 85.0096C49.4831 85.8016 48.3643 85.1592 48.3643 83.5696C49.1065 83.4533 50.9729 80.2465 50.8622 79.2441C52.2413 78.4521 53.3545 79.0945 53.3545 80.6841C53.3067 81.5498 53.0562 82.3923 52.6233 83.1436C52.1904 83.8949 51.5872 84.534 50.8622 85.0096Z" fill="#111827"/>
</g>
<path d="M57.8462 80.7776C57.8462 77.3881 55.6308 75.9259 52.8616 77.5154C50.0923 79.105 47.877 83.1481 47.877 86.5431V87.313C47.877 89.9271 50.8345 92.9567 52.197 94.2139C52.2743 94.2849 52.3671 94.337 52.4681 94.3659C52.569 94.3948 52.6753 94.3997 52.7786 94.3804C52.8818 94.361 52.979 94.3179 53.0627 94.2544C53.1463 94.1909 53.214 94.1088 53.2603 94.0145C54.4345 91.6108 57.8573 84.361 57.8573 81.553L57.8462 80.7776ZM52.8616 86.161C51.4825 86.9585 50.3693 86.3105 50.3693 84.721C50.4171 83.8552 50.6675 83.0128 51.1004 82.2615C51.5333 81.5102 52.1365 80.871 52.8616 80.3954C54.2406 79.6034 55.3594 80.2459 55.3594 81.841C55.3101 82.7063 55.0584 83.5479 54.6246 84.2982C54.1908 85.0485 53.5869 85.6866 52.8616 86.161Z" fill="#36C17F"/>
<path d="M105.599 119.319L103.705 118.212C102.796 117.608 101.545 117.63 100.154 118.433C97.3852 120.023 95.1698 124.066 95.1698 127.455V128.231C95.1698 131.62 99.7279 135.309 99.7279 135.309L101.594 136.367C101.594 136.367 100.487 135.087 100.603 134.827C101.821 132.318 105.15 125.235 105.15 122.465V121.695C105.156 121.134 105.083 120.575 104.934 120.034L105.15 120.156L105.599 119.319ZM100.154 127.101C98.7753 127.893 97.6566 127.251 97.6566 125.661C98.3987 125.545 100.265 122.338 100.154 121.335C101.533 120.543 102.647 121.186 102.647 122.775C102.599 123.641 102.348 124.484 101.916 125.235C101.483 125.986 100.879 126.625 100.154 127.101Z" fill="#36C17F"/>
<path d="M105.599 119.319L103.705 118.212C102.796 117.608 101.545 117.63 100.154 118.433C97.3852 120.023 95.1698 124.066 95.1698 127.455V128.231C95.1698 131.62 99.7279 135.309 99.7279 135.309L101.594 136.367C101.594 136.367 100.487 135.087 100.603 134.827C101.821 132.318 105.15 125.235 105.15 122.465V121.695C105.156 121.134 105.083 120.575 104.934 120.034L105.15 120.156L105.599 119.319ZM100.154 127.101C98.7753 127.893 97.6566 127.251 97.6566 125.661C98.3987 125.545 100.265 122.338 100.154 121.335C101.533 120.543 102.647 121.186 102.647 122.775C102.599 123.641 102.348 124.484 101.916 125.235C101.483 125.986 100.879 126.625 100.154 127.101Z" fill="#36C17F"/>
<g opacity="0.2">
<path opacity="0.2" d="M105.599 119.319L103.705 118.212C102.796 117.608 101.545 117.63 100.154 118.433C97.3852 120.023 95.1698 124.066 95.1698 127.455V128.231C95.1698 131.62 99.7279 135.309 99.7279 135.309L101.594 136.367C101.594 136.367 100.487 135.087 100.603 134.827C101.821 132.318 105.15 125.235 105.15 122.465V121.695C105.156 121.134 105.083 120.575 104.934 120.034L105.15 120.156L105.599 119.319ZM100.154 127.101C98.7753 127.893 97.6566 127.251 97.6566 125.661C98.3987 125.545 100.265 122.338 100.154 121.335C101.533 120.543 102.647 121.186 102.647 122.775C102.599 123.641 102.348 124.484 101.916 125.235C101.483 125.986 100.879 126.625 100.154 127.101Z" fill="#111827"/>
</g>
<path d="M107.138 122.871C107.138 119.482 104.923 118.02 102.154 119.609C99.3846 121.199 97.1692 125.242 97.1692 128.637V129.407C97.1692 132.021 100.127 135.05 101.489 136.308C101.567 136.379 101.659 136.431 101.76 136.46C101.861 136.489 101.968 136.493 102.071 136.474C102.174 136.455 102.271 136.412 102.355 136.348C102.439 136.285 102.506 136.203 102.553 136.108C103.727 133.705 107.149 126.455 107.149 123.647L107.138 122.871ZM102.154 128.255C100.775 129.052 99.6615 128.404 99.6615 126.815C99.7093 125.949 99.9598 125.107 100.393 124.355C100.826 123.604 101.429 122.965 102.154 122.489C103.533 121.697 104.652 122.34 104.652 123.935C104.602 124.8 104.351 125.642 103.917 126.392C103.483 127.142 102.879 127.78 102.154 128.255Z" fill="#36C17F"/>
<path d="M167.962 68.3664L167.84 68.2944L164.04 66.1122C163.161 65.5312 162.126 65.2282 161.072 65.2427C159.522 65.297 158.013 65.7573 156.697 66.5775C150.992 69.8673 146.373 78.2082 146.373 85.2421V86.8371C146.373 93.8544 155.788 101.481 155.788 101.481L159.626 103.652C159.499 103.502 157.317 100.999 157.577 100.473C160.103 95.2888 166.993 80.6396 166.993 74.9128V73.3178C167.004 72.1603 166.857 71.0068 166.555 69.8895L166.998 70.1442L167.962 68.3664ZM160.823 86.8371C158.292 88.2993 156.192 87.4187 155.749 84.8987C153.351 85.7738 151.535 84.3947 151.535 81.4759C153.069 81.2322 156.924 74.647 156.697 72.5368C159.222 71.0747 161.321 71.9553 161.764 74.4753C164.168 73.6002 165.984 74.9793 165.984 77.8981C165.984 81.1879 163.675 85.1922 160.823 86.8371Z" fill="#6B7280"/>
<path d="M167.962 68.3661L167.84 68.2941C165.996 67.2584 163.531 67.3968 160.823 68.9587C156.741 71.3181 153.207 76.275 151.535 81.4756C150.874 83.459 150.524 85.5329 150.499 87.6233V89.2239C150.499 94.6295 156.591 100.899 159.438 103.497C159.501 103.555 159.57 103.607 159.643 103.652C159.807 103.754 159.99 103.821 160.18 103.848C160.371 103.875 160.566 103.863 160.751 103.81C160.937 103.758 161.11 103.668 161.258 103.545C161.407 103.423 161.528 103.27 161.615 103.098C164.046 98.1131 171.13 83.1261 171.13 77.3162V75.7156C171.146 72.099 169.928 69.5458 167.962 68.3661ZM155.749 84.8984C155.688 84.5548 155.658 84.2062 155.661 83.8572C155.661 80.5673 157.97 76.563 160.823 74.9181C161.124 74.7443 161.439 74.5961 161.764 74.475C164.168 73.5999 165.985 74.979 165.985 77.8978C165.985 81.1876 163.675 85.1919 160.823 86.8368C158.292 88.299 156.193 87.4184 155.749 84.8984Z" fill="#9CA3AF"/>
<path d="M162.523 73.1407C162.13 73.2928 161.75 73.4781 161.388 73.6945C157.937 75.6828 155.146 80.5234 155.146 84.5001C155.141 84.9218 155.178 85.3429 155.257 85.7573C155.81 88.8034 158.33 89.8668 161.388 88.1001C164.833 86.1118 167.629 81.2711 167.629 77.2945C167.618 73.7499 165.42 72.0828 162.523 73.1407Z" fill="#6B7280"/>
<path d="M166.566 77.1993L161.642 75.8867L156.713 82.8929L158.015 82.1396V86.2547L160.878 84.6043V82.3058L162.401 81.4252V83.7236L165.265 82.0732V77.9526L166.566 77.1993Z" fill="#36C17F"/>
<path d="M192.065 82.1515L191.943 82.0795L188.144 79.8974C187.264 79.3163 186.23 79.0133 185.175 79.0278C183.625 79.0822 182.116 79.5424 180.8 80.3626C175.095 83.6525 170.476 91.9934 170.476 99.0272V100.622C170.476 107.64 179.892 115.266 179.892 115.266L183.73 117.437C183.602 117.288 181.42 114.784 181.681 114.258C184.206 109.074 191.096 94.4248 191.096 88.698V87.1029C191.108 85.9455 190.961 84.7919 190.658 83.6746L191.101 83.9294L192.065 82.1515ZM184.926 100.622C182.395 102.084 180.296 101.176 179.853 98.6838C177.455 99.5589 175.638 98.1798 175.638 95.2611C177.172 95.0174 181.027 88.4321 180.8 86.322C183.325 84.8598 185.425 85.7405 185.868 88.2605C188.271 87.3854 190.088 88.7645 190.088 91.6832C190.088 94.9731 187.778 98.9774 184.926 100.622Z" fill="#6B7280"/>
<path d="M192.065 82.1512L191.943 82.0792C190.099 81.0435 187.634 81.182 184.926 82.7438C180.844 85.1032 177.311 90.0601 175.638 95.2608C174.977 97.2441 174.628 99.318 174.602 101.408V103.015C174.602 108.42 180.722 114.69 183.541 117.287C183.605 117.345 183.673 117.397 183.746 117.442C183.91 117.544 184.093 117.611 184.284 117.639C184.474 117.666 184.669 117.653 184.855 117.601C185.04 117.549 185.213 117.459 185.362 117.336C185.51 117.213 185.632 117.061 185.718 116.888C188.149 111.904 195.233 96.9168 195.233 91.1069V89.5063C195.25 85.8842 194.031 83.3309 192.065 82.1512ZM179.88 98.6835C179.819 98.34 179.789 97.9914 179.792 97.6423C179.792 94.3525 182.101 90.3482 184.954 88.7032C185.255 88.5295 185.57 88.3813 185.895 88.2602C188.299 87.3851 190.116 88.7641 190.116 91.6829C190.116 94.9728 187.806 98.9771 184.954 100.622C182.395 102.084 180.296 101.204 179.853 98.6835H179.88Z" fill="#9CA3AF"/>
<path d="M186.615 86.9536C186.222 87.1055 185.842 87.2908 185.48 87.5075C182.029 89.4958 179.238 94.3364 179.238 98.313C179.234 98.7365 179.271 99.1594 179.349 99.5758C179.903 102.622 182.417 103.685 185.48 101.919C188.925 99.9302 191.716 95.0896 191.716 91.113C191.716 87.5352 189.523 85.8459 186.615 86.9536Z" fill="#6B7280"/>
<path d="M185.43 90.0669C186.61 89.3856 187.568 89.9395 187.568 91.3019C187.527 92.0432 187.313 92.7645 186.941 93.4073C186.57 94.0501 186.052 94.5963 185.43 95.0016C184.25 95.6829 183.292 95.129 183.292 93.7665C183.333 93.0253 183.548 92.304 183.919 91.6612C184.29 91.0184 184.808 90.4722 185.43 90.0669Z" fill="#36C17F"/>
<path d="M181.354 102.461C182.461 102.943 183.89 102.788 185.469 101.907C187.153 100.862 188.563 99.4302 189.584 97.7312V97.3712C189.584 95.1558 188.011 94.2253 186.073 95.3441L184.86 96.042C183.837 96.7095 182.986 97.6093 182.377 98.668C181.767 99.7267 181.417 100.914 181.354 102.134V102.461Z" fill="#36C17F"/>
</g>
<defs>
<clipPath id="clip0_48_34427">
<rect width="195.508" height="180" fill="white" transform="translate(0.246094)"/>
</clipPath>
</defs>
</svg>
